<svg width="640" height="180" viewBox="0 0 640 180" fill="none" xmlns="http://www.w3.org/2000/svg" role="img" aria-label="BflyVPN logo">
  <defs>
    <linearGradient id="signal" x1="36" y1="30" x2="166" y2="154" gradientUnits="userSpaceOnUse">
      <stop stop-color="#2563FF"/>
      <stop offset="1" stop-color="#38BDF8"/>
    </linearGradient>
    <filter id="softShadow" x="0" y="0" width="640" height="180" color-interpolation-filters="sRGB">
      <feDropShadow dx="0" dy="18" stdDeviation="20" flood-color="#2563FF" flood-opacity="0.12"/>
    </filter>
  </defs>
  <rect width="640" height="180" rx="40" fill="none"/>
  <g filter="url(#softShadow)">
    <path d="M48 111C65 55 123 41 144 78C169 122 91 159 68 82" stroke="url(#signal)" stroke-width="18" stroke-linecap="round" stroke-linejoin="round"/>
    <circle cx="126" cy="68" r="15" fill="#2563FF"/>
    <circle cx="73" cy="112" r="10" fill="#38BDF8"/>
  </g>
  <g stroke="#0F172A" stroke-width="16" stroke-linecap="round" stroke-linejoin="round">
    <path d="M221 48V92H272"/>
    <path d="M272 48V132"/>
    <path d="M315 48H369M369 48V90M315 90H369M369 90V132M315 132H369"/>
    <path d="M409 48H463M463 48V132"/>
    <path d="M557 48H505V132H557V90H505M557 132H505"/>
  </g>
</svg>
